<?xml version="1.0" encoding="utf-8"?>
<!-- Generator: Adobe Illustrator 21.0.0, SVG Export Plug-In . SVG Version: 6.00 Build 0)  -->
<svg version="1.1" id="레이어_1" xmlns="http://www.w3.org/2000/svg" xmlns:xlink="http://www.w3.org/1999/xlink" x="0px"
	 y="0px" viewBox="0 0 1500 1500" style="enable-background:new 0 0 1500 1500;" xml:space="preserve">
<style type="text/css">
	.st0{fill:#4F71DB;}
	.st1{fill:#3F51B5;}
	.st2{fill:#CE8752;}
	.st3{fill:#F5F196;}
	.st4{fill:#FFF0F0;}
	.st5{fill:#FFFFFF;}
	.st6{fill:#0D3354;}
	.st7{fill:url(#SVGID_1_);}
	.st8{fill:url(#SVGID_2_);}
	.st9{fill:#2F4382;}
</style>
<rect class="st0" width="1500" height="1500"/>
<g>
	<path class="st1" d="M1099.6,881.4c-21.7,9.6-37.1,28.5-42.5,50.8l-187.5,82.6l-24.7,10.9l10.9,24.7l14.7,33.3l10.9,24.7l24.7-10.9
		l187.5-82.5c20.1,11.1,44.4,12.5,66.1,3c37.6-16.6,54.8-60.7,38.2-98.3C1181.3,882,1137.2,864.8,1099.6,881.4z"/>
	<polygon class="st2" points="1124.9,971.6 895.1,1072.8 880.5,1039.4 1110.3,938.3 	"/>
	<path class="st3" d="M1173.2,930.5c10.6,24.1-0.3,52.1-24.4,62.7c-24.1,10.6-52.1-0.3-62.7-24.4c-10.6-24,0.3-52.1,24.4-62.7
		C1134.5,895.5,1162.6,906.4,1173.2,930.5z"/>
	<polygon class="st4" points="686.5,1213.8 703.8,1398 789.9,1398 789.9,1213.8 	"/>
	<path class="st1" d="M789.9,1213.8V1398h-86.2l-17.3-184.3H789.9 M816.9,1186.8h-27H686.5h-29.7l2.8,29.5l17.3,184.3l2.3,24.5h24.6
		h86.2h27v-27v-184.3L816.9,1186.8L816.9,1186.8z"/>
	<polygon class="st4" points="920.4,1213.8 903.1,1398 816.9,1398 816.9,1213.8 	"/>
	<path class="st1" d="M816.9,1213.8h103.5L903.1,1398h-86.2L816.9,1213.8 M789.9,1186.8v27V1398v27h27h86.2h24.6l2.3-24.5
		l17.3-184.3l2.8-29.5h-29.7H816.9H789.9L789.9,1186.8z"/>
	<path class="st1" d="M1015.5,1206.2c-0.5-4-47.6-406.4-37.5-573.5l2.4-38.9l-410,86.8l-2.4,21.3c-0.3,2.9-33,290.7-116.8,496.6
		l-13.5,33.1l35,7.2c6,1.2,149.2,30.2,300.8,30.2c0,0,0,0,0,0c90.7,0,165.6-10.6,222.6-31.4l22-8.1L1015.5,1206.2z"/>
	<g>
		<path class="st3" d="M1005,1110l-8.8,3.2c-57,20.8-131.9,31.4-222.6,31.4c0,0,0,0,0,0c-132.9,0-259.4-22.3-292.6-28.6
			c-9.1,28.3-19,56.1-29.7,82.5l-13.5,33.1l35,7.2c6,1.2,149.2,30.2,300.8,30.2c0,0,0,0,0,0c90.7,0,165.6-10.6,222.6-31.4l22-8.1
			l-2.8-23.3C1015.3,1205,1010.9,1167,1005,1110z"/>
	</g>
	<path class="st1" d="M951.3,627.5l-0.2,3.5c-10.3,169.3,37.1,574.3,37.6,578.3l0.3,2.1l-2,0.7c-54,19.7-125.8,29.8-213.4,29.8
		c-148.9,0-289.4-28.4-295.3-29.7l-3.2-0.7l1.2-3c85.1-209.1,118.3-500.9,118.6-503.8l0.2-1.9L951.3,627.5 M980.4,593.8l-410,86.8
		l-2.4,21.3c-0.3,2.9-33,290.7-116.8,496.6l-13.5,33.1l35,7.2c6,1.2,149.2,30.2,300.8,30.2c0,0,0,0,0,0
		c90.7,0,165.6-10.6,222.6-31.4l22-8.1l-2.8-23.3c-0.5-4-47.6-406.4-37.5-573.5L980.4,593.8L980.4,593.8z"/>
	<path class="st5" d="M810.6,930c-0.1,56.7-2.7,191.5-23.3,312c55.4-0.7,104.2-5.5,145.8-14.4c-0.1-0.5-26-232.5-34.5-329.7
		C871.2,913.2,841.6,924.1,810.6,930z"/>
	<path class="st1" d="M773.5,1269C773.6,1269,773.6,1269,773.5,1269c73.9,0,137.2-7,188.9-20.8l-2.6-23.5l-0.1-0.5
		c-2.7-24-26.4-236.8-34.4-328.6l-3.6-41.7l-36.5,20.5c-24.9,14-51.8,23.8-79.8,29.2l-21.9,4.2l0,22.3c-0.1,52.7-2.5,188-23,307.4
		l-5.4,31.4C761.3,1268.9,767.4,1269,773.5,1269z M810.6,930c31-5.9,60.6-16.8,88-32.2C907,995,933,1227,933.1,1227.6
		c-41.6,8.9-90.4,13.8-145.8,14.4C807.9,1121.6,810.5,986.7,810.6,930z"/>
	<path class="st6" d="M787.2,1285.2"/>
	<rect x="686.5" y="1356.1" class="st1" width="234" height="68.9"/>
	<path class="st1" d="M949.2,507.4c2.6,3.1,5,6.2,7.3,9.3c23.7,32.1,44.3,93.1,44.3,93.1c0,0-0.1,0-0.1,0
		c14,32.5,21.8,68.3,21.8,105.9c0,147.5-119.1,267.2-266.5,268.2c0,0-1,0-1.5,0c-0.1,0-0.1,0-0.2,0c-0.1,0-0.2,0-0.3,0
		c-176.2-0.1-291.5-18-291.5-18c33.7-63.4,28.7-193.9,28.7-193.9l3-1.8l439.5-254L949.2,507.4 M955.5,472.6L935.7,484l-15.5,8.9
		L480.8,747l-3,1.7l-14.1,8.2l0.6,16.3c1.3,34.3-0.7,133.5-25.5,180.1l-17.8,33.5l37.5,5.8c4.8,0.7,119.2,18.2,295.2,18.3
		c0.2,0,0.5,0,0.7,0h0.5l0.3,0c0.4,0,0.8,0,1.2,0c78.4-0.5,152.1-31.4,207.4-87.1c55.4-55.7,85.8-129.6,85.8-208.1
		c0-39.3-7.7-77.6-22.9-113.8l-0.2-0.7c-0.9-2.7-22.2-65.4-48.2-100.5l-0.1-0.2l-0.1-0.2c-3-3.9-5.5-7-7.9-10L955.5,472.6
		L955.5,472.6z"/>
	<path class="st4" d="M1022.6,715.7c0,148.1-120.1,268.2-268.2,268.2c-148.1,0-268.2-120.1-268.2-268.2
		c0-148.1,120.1-268.2,268.2-268.2C902.5,447.5,1022.6,567.6,1022.6,715.7z"/>
	<g>
		
			<linearGradient id="SVGID_1_" gradientUnits="userSpaceOnUse" x1="462.5915" y1="724.4955" x2="846.1395" y2="724.4955" gradientTransform="matrix(1 0 0 -1 0 1499.9697)">
			<stop  offset="0" style="stop-color:#C8C9CA"/>
			<stop  offset="1" style="stop-color:#B4B4B5"/>
		</linearGradient>
		<path class="st7" d="M609.4,736.5c0,0,107.2-52.2,223-89.7h0c0,0,9.1-40.3,13.7-79.8l-348,201.1l-6.9,4c0,0,5.1,130.4-28.7,193.9
			c0,0,116.3,18,293.7,18C756.3,984,609.4,940.3,609.4,736.5z"/>
		
			<linearGradient id="SVGID_2_" gradientUnits="userSpaceOnUse" x1="870.3215" y1="933.7839" x2="1000.8905" y2="933.7839" gradientTransform="matrix(1 0 0 -1 0 1499.9697)">
			<stop  offset="0" style="stop-color:#C8C9CA"/>
			<stop  offset="1" style="stop-color:#B4B4B5"/>
		</linearGradient>
		<path class="st8" d="M1000.9,609.8L1000.9,609.8c-0.1,0-20.6-61-44.3-93.1c-2.4-3.1-4.8-6.1-7.3-9.3L870.3,553
			c13.5,19.7,29.9,46.6,38.3,71.9v0C941.2,617,972.7,611.5,1000.9,609.8z"/>
	</g>
	<path class="st9" d="M969,662h-13.7h-27.2h-38h-12.6v90.7c0,21.5,17.4,38.9,38.9,38.9c21.5,0,38.9-17.4,38.9-38.9v-63.8H969
		c7.4,0,13.5-6,13.5-13.5C982.4,668,976.4,662,969,662z"/>
	<path class="st1" d="M891.7,688.9V751c0,13.5,11.1,24.4,24.7,24.4c13.6,0,24.7-11,24.7-24.4v-62.1L891.7,688.9L891.7,688.9z"/>
	<path class="st9" d="M831,662h-65.2h-31.8c-7.4,0-13.5,6-13.5,13.5c0,7.4,6,13.5,13.5,13.5h31.8v2.4v61.4
		c0,21.5,17.4,38.9,38.9,38.9c21.5,0,38.9-17.4,38.9-38.9V662H831z"/>
	<path class="st1" d="M779.9,689.7V752c0,13.5,11.1,24.5,24.7,24.5c13.6,0,24.7-11,24.7-24.5v-62.3H779.9z"/>
	<path class="st5" d="M795.4,689.7v43.8c0,7.4,6,13.5,13.5,13.5c7.4,0,13.5-6,13.5-13.5v-43.8H795.4z"/>
	<path class="st5" d="M907.1,688.9v43.8c0,7.4,6,13.5,13.5,13.5s13.5-6,13.5-13.5v-43.8H907.1z"/>
	<path class="st1" d="M888.6,1031.7c0,10.5-7.6,18.9-16.9,18.9c-9.3,0-16.9-8.5-16.9-18.9c0-10.5,7.6-18.9,16.9-18.9
		C881,1012.8,888.6,1021.3,888.6,1031.7z"/>
	<path class="st1" d="M888.6,1085.6c0,10.5-7.6,18.9-16.9,18.9c-9.3,0-16.9-8.5-16.9-18.9c0-10.5,7.6-18.9,16.9-18.9
		C881,1066.7,888.6,1075.2,888.6,1085.6z"/>
	<g>
		<path class="st1" d="M953.8,456.4L441.6,83.6c-12-8.7-22.3-10.6-29.2-6.7c-6.9,4-10.4,13.8-8.8,28.6l66.8,630
			c3.1,29.5,26.7,41.5,52.5,26.7l427.8-247C976.4,500.4,977.8,473.9,953.8,456.4z"/>
		<g>
			<polygon class="st3" points="515.2,398.7 610,407.9 559.7,327 597.8,239.7 505.3,262.6 441.2,205.8 467.7,455.1 			"/>
		</g>
		<polygon class="st3" points="620.3,282.4 662.3,299.8 700.4,275.1 696.8,320.4 732.2,349 688,359.6 671.7,402.1 647.9,363.3 
			602.5,360.9 632,326.3 		"/>
		<path class="st1" d="M1035.1,446.1l0.1-0.3l-0.2-0.5c-0.7-2.4-1.5-4.8-2.8-7l-2-3.4v0l0,0l-16.9-29.3c-1.7-2.9-3.8-5.3-6.3-7.5
			l0,0h0c-5.3-4.6-12.2-7.3-19.5-7.3c-5.2,0-10.3,1.4-14.8,4l-566,326.8c-14.2,8.2-19.1,26.4-10.9,40.6l18.9,32.7
			c3.6,6.3,9.5,10.9,16.2,13.2l0.1,0.1h0.2c3,1,6.1,1.5,9.3,1.5c5.2,0,10.3-1.4,14.8-4l566-326.8
			C1032.9,472.2,1038.1,458.6,1035.1,446.1z"/>
		<g>
			<polygon class="st3" points="888.3,443.4 786.9,369.5 452.3,562.7 465.5,687.6 916.3,427.3 916.2,427.3 			"/>
		</g>
		<g>
			<g>
				<path class="st1" d="M431.2,110.7l506.7,368.8c5.1,3.7,6.1,6.6,6,7.1c0,0.5-1.3,3.3-6.7,6.4l-427.8,247c-5.4,3.1-8.5,2.8-9,2.6
					c-0.5-0.2-2.5-2.6-3.2-8.8L431.2,110.7 M412.5,77c-6.9,4-10.4,13.8-8.8,28.6l66.8,630c3.1,29.5,26.7,41.5,52.5,26.7l427.8-247
					c25.7-14.8,27.1-41.3,3.1-58.8L441.6,83.6C429.6,74.9,419.4,73,412.5,77L412.5,77z"/>
			</g>
		</g>
	</g>
</g>
</svg>
