<?xml version="1.0" encoding="UTF-8" standalone="no"?>
<!-- Created with Inkscape (http://www.inkscape.org/) -->

<svg
   width="32.0px"
   height="32.0px"
   viewBox="0 0 32.0 32.0"
   version="1.1"
   id="SVGRoot"
   sodipodi:docname="planet-logo.svg"
   inkscape:version="1.2.2 (b0a84865, 2022-12-01)"
   xmlns:inkscape="http://www.inkscape.org/namespaces/inkscape"
   xmlns:sodipodi="http://sodipodi.sourceforge.net/DTD/sodipodi-0.dtd"
   xmlns="http://www.w3.org/2000/svg"
   xmlns:svg="http://www.w3.org/2000/svg">
  <sodipodi:namedview
     id="namedview350"
     pagecolor="#ffffff"
     bordercolor="#000000"
     borderopacity="0.25"
     inkscape:showpageshadow="2"
     inkscape:pageopacity="0.0"
     inkscape:pagecheckerboard="0"
     inkscape:deskcolor="#d1d1d1"
     inkscape:document-units="px"
     showgrid="true"
     inkscape:zoom="4.4865838"
     inkscape:cx="-35.216104"
     inkscape:cy="22.288673"
     inkscape:window-width="1309"
     inkscape:window-height="456"
     inkscape:window-x="0"
     inkscape:window-y="25"
     inkscape:window-maximized="0"
     inkscape:current-layer="layer1">
    <inkscape:grid
       type="xygrid"
       id="grid356" />
  </sodipodi:namedview>
  <defs
     id="defs345" />
  <g
     inkscape:label="레이어 1"
     inkscape:groupmode="layer"
     id="layer1">
    <g
       id="g92"
       transform="matrix(0.04355339,0,0,0.04355339,-15.091887,-3.2651816)">
		<path
   class="st1"
   d="M 953.8,456.4 441.6,83.6 c -12,-8.7 -22.3,-10.6 -29.2,-6.7 -6.9,4 -10.4,13.8 -8.8,28.6 l 66.8,630 c 3.1,29.5 26.7,41.5 52.5,26.7 l 427.8,-247 c 25.7,-14.8 27.1,-41.3 3.1,-58.8 z"
   id="path72"
   style="fill:#3f51b5" />

		<g
   id="g76">
			<polygon
   class="st3"
   points="597.8,239.7 505.3,262.6 441.2,205.8 467.7,455.1 515.2,398.7 610,407.9 559.7,327 "
   id="polygon74"
   style="fill:#f5f196" />

		</g>

		<polygon
   class="st3"
   points="620.3,282.4 662.3,299.8 700.4,275.1 696.8,320.4 732.2,349 688,359.6 671.7,402.1 647.9,363.3 602.5,360.9 632,326.3 "
   id="polygon78"
   style="fill:#f5f196" />

		<path
   class="st1"
   d="m 1035.1,446.1 0.1,-0.3 -0.2,-0.5 c -0.7,-2.4 -1.5,-4.8 -2.8,-7 l -2,-3.4 v 0 0 l -16.9,-29.3 c -1.7,-2.9 -3.8,-5.3 -6.3,-7.5 v 0 0 c -5.3,-4.6 -12.2,-7.3 -19.5,-7.3 -5.2,0 -10.3,1.4 -14.8,4 l -566,326.8 c -14.2,8.2 -19.1,26.4 -10.9,40.6 l 18.9,32.7 c 3.6,6.3 9.5,10.9 16.2,13.2 l 0.1,0.1 h 0.2 c 3,1 6.1,1.5 9.3,1.5 5.2,0 10.3,-1.4 14.8,-4 l 566,-326.8 c 11.6,-6.7 16.8,-20.3 13.8,-32.8 z"
   id="path80"
   style="fill:#3f51b5" />

		<g
   id="g84">
			<polygon
   class="st3"
   points="916.3,427.3 916.2,427.3 888.3,443.4 786.9,369.5 452.3,562.7 465.5,687.6 "
   id="polygon82"
   style="fill:#f5f196" />

		</g>

		<g
   id="g90">
			<g
   id="g88">
				<path
   class="st1"
   d="m 431.2,110.7 506.7,368.8 c 5.1,3.7 6.1,6.6 6,7.1 0,0.5 -1.3,3.3 -6.7,6.4 L 509.4,740 c -5.4,3.1 -8.5,2.8 -9,2.6 -0.5,-0.2 -2.5,-2.6 -3.2,-8.8 l -66,-623.1 M 412.5,77 c -6.9,4 -10.4,13.8 -8.8,28.6 l 66.8,630 c 3.1,29.5 26.7,41.5 52.5,26.7 l 427.8,-247 c 25.7,-14.8 27.1,-41.3 3.1,-58.8 L 441.6,83.6 C 429.6,74.9 419.4,73 412.5,77 Z"
   id="path86"
   style="fill:#3f51b5" />

			</g>

		</g>

	</g>
  </g>
</svg>
